<?xml version="1.0" encoding="UTF-8"?>
<svg version="1.1" xmlns="http://www.w3.org/2000/svg" width="491" height="508">
<path d="M0 0 C162.03 0 324.06 0 491 0 C491 167.64 491 335.28 491 508 C328.97 508 166.94 508 0 508 C0 340.36 0 172.72 0 0 Z " fill="#A388F8" transform="translate(0,0)"/>
<path d="M0 0 C4.48013125 1.49337708 8.51896997 3.06219473 12.78515625 5.01953125 C13.43029678 5.31432373 14.07543732 5.60911621 14.74012756 5.9128418 C16.1265991 6.54669042 17.5124617 7.18187244 18.89776611 7.81826782 C22.60464376 9.52078519 26.31641957 11.21257594 30.02734375 12.90625 C30.78172729 13.25089798 31.53611084 13.59554596 32.31335449 13.95063782 C47.70876561 20.98157145 63.14403088 27.92721984 78.6875 34.625 C94.30966596 41.36263005 109.76908976 48.46999149 125.26281738 55.49623108 C133.35359039 59.16371856 141.4550374 62.80707702 149.5625 66.4375 C150.70734863 66.95030518 151.85219727 67.46311035 153.03173828 67.99145508 C162.35703989 72.16515993 171.69466729 76.31064688 181.0390625 80.44140625 C181.96415619 80.85035629 182.88924988 81.25930634 183.84237671 81.6806488 C185.78356452 82.53870236 187.72477783 83.39669822 189.66601562 84.25463867 C191.64232941 85.12816284 193.61856612 86.00186141 195.59472656 86.87573242 C198.47183616 88.14800651 201.34917378 89.41976359 204.2265625 90.69140625 C205.10277252 91.07897598 205.97898254 91.46654572 206.88174438 91.86585999 C207.71305878 92.23311691 208.54437317 92.60037384 209.40087891 92.97875977 C210.48267929 93.45696922 210.48267929 93.45696922 211.58633423 93.94483948 C214.71691211 95.31340601 217.8596038 96.65411592 221 98 C221 183.8 221 269.6 221 358 C217.16827614 357.23365523 214.49125053 356.48831674 211.0078125 354.9609375 C210.06373535 354.5491626 209.1196582 354.1373877 208.14697266 353.71313477 C207.14972168 353.27155029 206.1524707 352.82996582 205.125 352.375 C204.08778809 351.91988037 203.05057617 351.46476074 201.98193359 350.99584961 C195.31890017 348.06036196 188.71410994 345.02412584 182.1328125 341.91015625 C176.63340225 339.34011537 171.06085847 336.93325962 165.5 334.5 C158.65517723 331.50415736 151.81926956 328.50270385 145.0625 325.3125 C134.79500349 320.47340396 124.39653429 315.93281686 114.00669861 311.36398315 C111.02599498 310.05297864 108.04579821 308.74082362 105.06558228 307.42871094 C102.87595039 306.46541408 100.6854433 305.50412936 98.49487305 304.54296875 C91.20998228 301.34048644 83.96485629 298.07145498 76.76396179 294.68435669 C68.77317215 290.93699972 60.69524934 287.38450906 52.625 283.8125 C51.03509708 283.10755531 49.44525311 282.40247766 47.85546875 281.69726562 C44.84933294 280.36400193 41.84292437 279.03135731 38.83618164 277.69946289 C31.15372298 274.29634125 23.47804087 270.87857928 15.8125 267.4375 C14.94947266 267.05142578 14.08644531 266.66535156 13.19726562 266.26757812 C12.35486328 265.88923828 11.51246094 265.51089844 10.64453125 265.12109375 C9.52075073 264.61727173 9.52075073 264.61727173 8.37426758 264.10327148 C5.55524949 262.79333393 2.78033083 261.39016541 0 260 C0 174.2 0 88.4 0 0 Z " fill="#FEFEFE" transform="translate(16,128)"/>
<path d="M0 0 C0.88816406 0.43699219 1.77632812 0.87398437 2.69140625 1.32421875 C6.18991105 3.02000055 9.69688864 4.63253259 13.27320862 6.15766907 C16.78035509 7.66990258 20.25764384 9.24825109 23.73828125 10.8203125 C25.3998166 11.56926423 27.06135649 12.31820589 28.72290039 13.06713867 C29.58529327 13.45614349 30.44768616 13.84514832 31.33621216 14.24594116 C45.40344198 20.59103988 59.48348974 26.90430806 73.5949707 33.15039062 C79.32270677 35.69104587 85.02528855 38.27398327 90.69140625 40.94921875 C95.7446135 43.33497644 100.84378621 45.52734853 106.01611328 47.63989258 C109.39468057 49.07136367 112.70600777 50.60795959 116.0234375 52.17578125 C123.84256773 55.84926203 131.72634869 59.36851697 139.62680054 62.86294556 C143.597549 64.61924721 147.56626389 66.38013394 151.53515625 68.140625 C152.30582932 68.48234238 153.07650238 68.82405975 153.87052917 69.1761322 C159.57027803 71.7046775 165.25980229 74.25514566 170.94140625 76.82421875 C184.65191166 83.01856244 198.41220707 89.11581868 212.25390625 95.01171875 C212.25390625 95.67171875 212.25390625 96.33171875 212.25390625 97.01171875 C209.00423046 98.49159836 205.75409655 99.97046953 202.50390625 101.44921875 C201.6221875 101.85076172 200.74046875 102.25230469 199.83203125 102.66601562 C193.48631259 105.55243626 187.13164598 108.41857752 180.7734375 111.27734375 C173.86534219 114.38345437 166.96145109 117.49863098 160.0625 120.625 C159.21898987 121.00722214 158.37547974 121.38944427 157.50640869 121.7832489 C156.6565741 122.16834122 155.8067395 122.55343353 154.93115234 122.95019531 C115.44772463 140.84157331 115.44772463 140.84157331 97.53320312 148.63110352 C88.69104463 152.47820444 79.90417108 156.43112248 71.14523315 160.46386719 C56.43369404 167.23351923 41.66607305 173.87058632 26.86035156 180.43139648 C26.16251556 180.74076645 25.46467957 181.05013641 24.74569702 181.36888123 C23.3633743 181.98023302 21.98010523 182.58944994 20.59585571 183.19642639 C16.84132284 184.84602959 13.11452597 186.54054781 9.40673828 188.29296875 C8.59926651 188.66836792 7.79179474 189.04376709 6.95985413 189.43054199 C5.40709876 190.15341143 3.85983004 190.88822852 2.31932068 191.63684082 C-2.12090924 193.68554862 -4.88645871 194.51362121 -9.74609375 193.01171875 C-11.74404175 192.20702727 -13.71278336 191.32733738 -15.65234375 190.390625 C-16.79058594 189.84937988 -17.92882812 189.30813477 -19.1015625 188.75048828 C-19.99657471 188.32162323 -19.99657471 188.32162323 -20.90966797 187.88409424 C-23.99417638 186.41882972 -27.10499953 185.01204263 -30.21484375 183.6015625 C-31.52638998 183.00477014 -32.83791298 182.40792673 -34.14941406 181.81103516 C-35.51492507 181.19032212 -36.88048616 180.56971926 -38.24609375 179.94921875 C-38.95519897 179.62701355 -39.6643042 179.30480835 -40.39489746 178.97283936 C-69.29236226 165.78613684 -69.29236226 165.78613684 -98.43847656 153.16455078 C-103.87505719 150.86985973 -109.22441855 148.406107 -114.56546021 145.8991394 C-123.00664863 141.94168904 -131.50162492 138.10313245 -139.99609375 134.26171875 C-140.88907166 133.85763794 -141.78204956 133.45355713 -142.7020874 133.03723145 C-159.67587474 125.36024522 -176.69969381 117.79835325 -193.74780273 110.2880249 C-195.39560947 109.56184217 -197.04292284 108.83453873 -198.68969727 108.10601807 C-202.61313489 106.37367841 -206.54483376 104.66935779 -210.50292969 103.01757812 C-211.24993134 102.70218079 -211.99693298 102.38678345 -212.76657104 102.06182861 C-214.16781241 101.47160919 -215.57271309 100.88997572 -216.98171997 100.31854248 C-218.60644278 99.63029388 -220.18263923 98.82965537 -221.74609375 98.01171875 C-222.07609375 97.02171875 -222.40609375 96.03171875 -222.74609375 95.01171875 C-221.9046582 94.64111328 -221.06322266 94.27050781 -220.19628906 93.88867188 C-210.51567758 89.62387836 -200.83775067 85.35302888 -191.16143799 81.07849121 C-188.84072909 80.05351585 -186.51975454 79.02914423 -184.19873047 78.00488281 C-166.82114463 70.33369735 -149.50462978 62.54771304 -132.26309204 54.57528687 C-119.08793838 48.48863627 -105.82497114 42.61981871 -92.52328491 36.81567383 C-78.97425926 30.90128097 -65.50258541 24.83656794 -52.0715332 18.65942383 C-41.72250388 13.90135518 -31.33567583 9.23728856 -20.91455078 4.63916016 C-19.89087402 4.18718262 -18.86719727 3.73520508 -17.8125 3.26953125 C-16.92506104 2.87910645 -16.03762207 2.48868164 -15.12329102 2.08642578 C-13.59875204 1.39719701 -12.09168059 0.66707413 -10.61132812 -0.11254883 C-6.97510944 -1.81976302 -3.68744146 -1.3270593 0 0 Z " fill="#FEFEFE" transform="translate(250.74609375,18.98828125)"/>
<path d="M0 0 C0 23.43 0 46.86 0 71 C-7.033125 74.0525 -14.06625 77.105 -21.3125 80.25 C-35.16961359 86.27041681 -49.01965229 92.30232755 -62.8137207 98.46606445 C-75.12580753 103.96289399 -87.48008089 109.36378092 -99.83129883 114.77197266 C-100.68560989 115.14637985 -101.53992096 115.52078705 -102.42012024 115.90653992 C-104.01040289 116.60348606 -105.6009442 117.29984246 -107.19181824 117.99543762 C-113.15463065 120.60935557 -119.07121088 123.30509585 -125 126 C-125.33 149.76 -125.66 173.52 -126 198 C-107.78656996 191.16996374 -89.86017143 184.06555905 -72.10980225 176.13162231 C-67.46380896 174.05555316 -62.81213721 171.99229758 -58.16015625 169.9296875 C-56.75805908 169.30783318 -56.75805908 169.30783318 -55.32763672 168.67341614 C-44.60953996 163.92834782 -33.83593563 159.31462526 -23.05249023 154.72045898 C-22.37494186 154.43169388 -21.69739349 154.14292877 -20.99931335 153.84541321 C-19.7089001 153.29583833 -18.41815302 152.74704643 -17.12702942 152.19914246 C-12.95492014 150.42438748 -8.82204004 148.57788667 -4.72119141 146.64428711 C-3 146 -3 146 0 146 C0 160.52 0 175.04 0 190 C-15.7578635 197.87893175 -15.7578635 197.87893175 -21.50390625 200.40234375 C-22.13727905 200.68149628 -22.77065186 200.9606488 -23.42321777 201.2482605 C-25.46809564 202.1482511 -27.51520703 203.04301862 -29.5625 203.9375 C-31.04557618 204.58859303 -32.52856545 205.23988407 -34.01147461 205.89135742 C-46.18899461 211.23442342 -58.3958516 216.50995616 -70.60888672 221.77124023 C-79.21630503 225.48199466 -87.80746464 229.227388 -96.3828125 233.01171875 C-97.32908005 233.42895706 -98.2753476 233.84619537 -99.25028992 234.27607727 C-103.87805081 236.31707249 -108.50395739 238.36211474 -113.12719727 240.41333008 C-114.79697595 241.15069337 -116.46681336 241.88792371 -118.13671875 242.625 C-119.29018295 243.1393586 -119.29018295 243.1393586 -120.46694946 243.66410828 C-125.77307406 246 -125.77307406 246 -128 246 C-128 269.76 -128 293.52 -128 318 C-132.29 319.65 -136.58 321.3 -141 323 C-143.76877731 324.20914272 -146.50738415 325.42919303 -149.23828125 326.71484375 C-150.31329895 327.21369583 -150.31329895 327.21369583 -151.41003418 327.72262573 C-152.93034001 328.42815455 -154.44987419 329.13534838 -155.96865845 329.84414673 C-170.48833388 336.61727293 -185.08680778 343.18276515 -199.79614258 349.53295898 C-207.32893964 352.78546671 -207.32893964 352.78546671 -214.69921875 356.38671875 C-218 358 -218 358 -221 358 C-221 272.2 -221 186.4 -221 98 C-213.41 94.7 -205.82 91.4 -198 88 C-192.40557101 85.40850268 -192.40557101 85.40850268 -186.82421875 82.7890625 C-182.11713486 80.57292131 -177.3706776 78.44441379 -172.625 76.3125 C-171.80427002 75.94374756 -170.98354004 75.57499512 -170.13793945 75.19506836 C-162.94450792 71.96796548 -155.73883744 68.76885051 -148.52850342 65.57971191 C-132.34850534 58.42122144 -116.19965759 51.20482319 -100.125 43.8125 C-86.63129436 37.60745511 -73.05580532 31.6233472 -59.40625 25.76953125 C-54.53651006 23.67623341 -49.70020708 21.52171319 -44.88085938 19.31518555 C-38.47627732 16.39133101 -32.04196096 13.53264229 -25.61572266 10.65673828 C-24.36842372 10.09845441 -23.12119017 9.54002444 -21.87402344 8.98144531 C-20.06340782 8.1706503 -18.25241042 7.36070803 -16.44140625 6.55078125 C-12.30936977 4.68878524 -8.19721375 2.78516539 -4.09179688 0.86523438 C-2 0 -2 0 0 0 Z " fill="#FEFEFE" transform="translate(475,128)"/>
<path d="M0 0 C0 60.06 0 120.12 0 182 C-162.03 182 -324.06 182 -491 182 C-491 144.38 -491 106.76 -491 68 C-489 71 -489 71 -489 73 C-488.18152588 73.25418701 -487.36305176 73.50837402 -486.51977539 73.77026367 C-482.45847795 75.18919654 -478.59655889 76.89530507 -474.68359375 78.67578125 C-473.48207672 79.21819206 -473.48207672 79.21819206 -472.25628662 79.77156067 C-470.53977139 80.54687742 -468.82385606 81.32352346 -467.10848999 82.10137939 C-464.41055163 83.32471934 -461.71100578 84.54444435 -459.01098633 85.76318359 C-455.3797984 87.40254499 -451.74917175 89.04313727 -448.11914062 90.68505859 C-424.98287336 101.23415706 -424.98287336 101.23415706 -401.59448242 111.20361328 C-395.65336474 113.64760118 -389.85168431 116.37918204 -384.03808594 119.10839844 C-377.31677215 122.26260483 -370.5643754 125.34939666 -363.8125 128.4375 C-363.07098694 128.77671478 -362.32947388 129.11592957 -361.56549072 129.46542358 C-338.46702653 140.02429304 -315.23247035 150.27751459 -291.97460938 160.47949219 C-287.08548242 162.62774494 -282.2139081 164.80267358 -277.375 167.0625 C-275.25027012 168.04225266 -273.12522017 169.02131129 -271 170 C-270.13068848 170.40702148 -269.26137695 170.81404297 -268.36572266 171.23339844 C-265.31490991 172.65426998 -262.2523348 174.04716422 -259.1875 175.4375 C-258.20765137 175.89970947 -257.22780273 176.36191895 -256.21826172 176.83813477 C-250.59510495 179.35814916 -246.07286388 181.02333636 -240 179 C-236.15587337 177.49656826 -232.46183012 175.73995129 -228.75 173.9375 C-226.41788806 172.83335405 -224.08448118 171.73194035 -221.75 170.6328125 C-221.13211609 170.3408046 -220.51423218 170.04879669 -219.87762451 169.74794006 C-212.2255051 166.14197961 -204.48682624 162.73180215 -196.75 159.3125 C-193.69632858 157.96158299 -190.64297903 156.60994076 -187.58984375 155.2578125 C-186.81696518 154.91564697 -186.04408661 154.57348145 -185.24778748 154.22094727 C-179.34409634 151.60401808 -173.45345964 148.95880343 -167.56640625 146.3046875 C-165.83563551 145.52558249 -164.10484146 144.74652926 -162.37402344 143.9675293 C-159.8685324 142.8397708 -157.36368948 141.71069177 -154.86096191 140.57681274 C-152.55096683 139.53039336 -150.23861478 138.48934624 -147.92578125 137.44921875 C-146.92013878 136.9908815 -146.92013878 136.9908815 -145.8941803 136.52328491 C-140.96720595 134.31594443 -136.18875311 132.72958437 -131 131 C-131 106.58 -131 82.16 -131 57 C-99.92439516 43.06955645 -99.92439516 43.06955645 -88.12304688 37.83349609 C-83.73834372 35.88611973 -79.36096589 33.92255822 -74.984375 31.95703125 C-56.4937944 23.65522665 -37.97599512 15.4287191 -19.34765625 7.43994141 C-16.93547844 6.40238126 -14.52705715 5.35790419 -12.12109375 4.30615234 C-11.47966431 4.02728683 -10.83823486 3.74842133 -10.17736816 3.46110535 C-8.37837361 2.67894576 -6.58074819 1.89363934 -4.78320312 1.1081543 C-2 0 -2 0 0 0 Z " fill="#FEFEFE" transform="translate(491,326)"/>
<path d="M0 0 C162.03 0 324.06 0 491 0 C491 37.62 491 75.24 491 114 C489 111 489 111 489 109 C488.1553418 108.73533936 487.31068359 108.47067871 486.44042969 108.19799805 C482.83724362 106.94332632 479.40645478 105.44134136 475.953125 103.83203125 C474.55281917 103.18659741 473.15250977 102.54117132 471.75219727 101.89575195 C470.65211838 101.38656723 470.65211838 101.38656723 469.52981567 100.86709595 C456.26024923 94.72886681 442.94161314 88.7079779 429.5625 82.8125 C428.86201538 82.50325592 428.16153076 82.19401184 427.43981934 81.87539673 C421.0166189 79.04121399 414.5904699 76.22769329 408.08984375 73.57421875 C402.51911686 71.27361252 397.08944938 68.71576796 391.64752197 66.12997437 C384.46502855 62.72519566 377.20662559 59.50432704 369.93243408 56.30130005 C357.93402508 51.01650015 345.99039591 45.63980205 334.125 40.0625 C325.08909088 35.81982606 316.00507858 31.80453577 306.71337891 28.15258789 C298.98744506 25.09697092 291.506008 21.55154134 284 18 C278.77317281 15.53073524 273.54123853 13.07305964 268.29931641 10.63598633 C266.74986772 9.9125922 265.20270042 9.18429379 263.65771484 8.45141602 C261.38165914 7.37292091 259.09815777 6.31186958 256.8125 5.25390625 C256.13010254 4.92588516 255.44770508 4.59786407 254.74462891 4.25990295 C249.7054308 1.9579658 245.40442515 0.8739021 239.91864014 2.6884613 C237.52763133 3.66480459 235.20064702 4.73305105 232.8671875 5.83984375 C231.55840134 6.44041344 231.55840134 6.44041344 230.22317505 7.05311584 C227.43455215 8.33556961 224.65464013 9.63570752 221.875 10.9375 C218.24956218 12.6179841 214.62088848 14.29142001 210.9921875 15.96484375 C210.09280457 16.38126129 209.19342163 16.79767883 208.26678467 17.22671509 C200.8909151 20.6284 193.44979524 23.86145517 185.9694519 27.02610779 C181.26817158 29.01561323 176.61619823 31.06995851 172 33.25 C171.02051392 33.71200806 171.02051392 33.71200806 170.02124023 34.18334961 C169.20441772 34.57018921 169.20441772 34.57018921 168.37109375 34.96484375 C161.42228502 38.22381342 154.39935866 41.32180203 147.39208984 44.45239258 C146.1038138 45.02809635 144.81556584 45.60386299 143.52734375 46.1796875 C142.86351685 46.47640854 142.19968994 46.77312958 141.51574707 47.07884216 C135.9217126 49.58195209 130.33721999 52.10589655 124.75390625 54.6328125 C122.08763687 55.83802116 119.42125793 57.04298711 116.75485229 58.24789429 C115.02658226 59.029672 113.29880378 59.81253745 111.57156372 60.59658813 C103.41663034 64.29776743 95.27038083 67.95724786 86.9296875 71.22265625 C82.05199776 73.13934422 77.39252457 75.22792952 72.74072266 77.6328125 C67.09406443 80.44960263 61.28543412 82.9276827 55.51296997 85.47375488 C53.14594179 86.51833991 50.78063559 87.56673655 48.41577148 88.61621094 C41.42974694 91.71570304 34.4407356 94.80819562 27.4438324 97.88305664 C24.77385321 99.05796912 22.10644939 100.23864464 19.43960571 101.4206543 C17.60364342 102.23182195 15.76413626 103.0349512 13.92456055 103.83789062 C12.81636963 104.32966797 11.70817871 104.82144531 10.56640625 105.328125 C9.60677979 105.7499707 8.64715332 106.17181641 7.65844727 106.60644531 C4.44543989 108.18296156 4.44543989 108.18296156 0 112 C0 75.04 0 38.08 0 0 Z " fill="#FEFEFE" transform="translate(0,0)"/>
<path d="M0 0 C0 15.18 0 30.36 0 46 C-3.25875 47.258125 -6.5175 48.51625 -9.875 49.8125 C-21.99009533 54.59080104 -33.83946569 59.91201175 -45.6875 65.3125 C-46.59309662 65.72528198 -47.49869324 66.13806396 -48.43173218 66.56335449 C-49.3381546 66.97653931 -50.24457703 67.38972412 -51.1784668 67.81542969 C-61.808495 72.65958934 -72.45853222 77.44131849 -83.1875 82.0625 C-84.97450317 82.83243286 -84.97450317 82.83243286 -86.79760742 83.61791992 C-89.08781565 84.60281983 -91.37841052 85.58682126 -93.66943359 86.56982422 C-99.11816105 88.90955779 -104.55972149 91.26570221 -110 93.625 C-110.93223389 94.02726807 -111.86446777 94.42953613 -112.82495117 94.84399414 C-116.42189544 96.40330864 -119.951604 97.97503206 -123.4375 99.7734375 C-126 101 -126 101 -129 101 C-129 85.82 -129 70.64 -129 55 C-85.83826981 35.92224465 -85.83826981 35.92224465 -70.26464844 29.08398438 C-64.16447298 26.40181412 -58.07262893 23.7012784 -51.984375 20.9921875 C-51.18821274 20.63797226 -50.39205048 20.28375702 -49.57176208 19.91880798 C-45.6325227 18.16591369 -41.69387053 16.41171692 -37.75610352 14.65551758 C-4.86563416 0 -4.86563416 0 0 0 Z " fill="#FDFDFE" transform="translate(491,207)"/>
<path d="M0 0 C-1 3 -1 3 -3.0625 4.1875 C-3.701875 4.455625 -4.34125 4.72375 -5 5 C-5.01030746 5.83493988 -5.02061493 6.66987976 -5.03123474 7.53012085 C-5.12909975 15.38798973 -5.23159839 23.24578142 -5.33933926 31.10352135 C-5.3945691 35.14353051 -5.44798919 39.18354691 -5.49731445 43.22363281 C-5.54495713 47.12050405 -5.59729989 51.01728609 -5.65294075 54.91405106 C-5.67336475 56.40281588 -5.69207776 57.89160516 -5.70907402 59.38041306 C-5.73311711 61.46121843 -5.76317159 63.54185475 -5.79467773 65.62255859 C-5.81022202 66.80836517 -5.8257663 67.99417175 -5.84178162 69.21591187 C-6 72 -6 72 -7 74 C-6.01 74.33 -5.02 74.66 -4 75 C-5.32 75 -6.64 75 -8 75 C-8 51.24 -8 27.48 -8 3 C-2 0 -2 0 0 0 Z " fill="#A590E5" transform="translate(357,251)"/>
<path d="M0 0 C0.66 0.33 1.32 0.66 2 1 C-1.57208335 4.15183825 -4.46686393 5.63150609 -9 7 C-13.58356975 8.72725059 -18.0564173 10.49326114 -22.375 12.8125 C-25.32917255 14.14891139 -26.03757248 13.92654648 -29 13 C-24.91108771 11.12025408 -20.81768617 9.25080904 -16.71972656 7.39086914 C-15.32553058 6.75633122 -13.93261691 6.11896809 -12.54101562 5.47875977 C-10.54364935 4.56045497 -8.54193277 3.65231897 -6.5390625 2.74609375 C-5.91504547 2.45657333 -5.29102844 2.16705292 -4.64810181 1.86875916 C-3.12444236 1.18536338 -1.56421667 0.5846316 0 0 Z " fill="#A996EC" transform="translate(334,173)"/>
<path d="M0 0 C-1.43457328 0.9834496 -2.87277406 1.96160921 -4.3125 2.9375 C-5.11300781 3.48277344 -5.91351563 4.02804688 -6.73828125 4.58984375 C-9 6 -9 6 -12 7 C-12.66 7.66 -13.32 8.32 -14 9 C-16.1640625 9.1953125 -16.1640625 9.1953125 -18.625 9.125 C-19.44226563 9.10695312 -20.25953125 9.08890625 -21.1015625 9.0703125 C-21.72804688 9.04710937 -22.35453125 9.02390625 -23 9 C-19.7994019 5.7994019 -15.63389369 4.54655643 -11.5 2.8125 C-10.61957031 2.43158203 -9.73914063 2.05066406 -8.83203125 1.65820312 C-7.99027344 1.30306641 -7.14851563 0.94792969 -6.28125 0.58203125 C-5.50845703 0.25436768 -4.73566406 -0.0732959 -3.93945312 -0.41088867 C-2 -1 -2 -1 0 0 Z " fill="#A790F1" transform="translate(429,220)"/>
<path d="M0 0 C2.31 0 4.62 0 7 0 C3.3368352 3.10697748 -0.76264076 4.85366137 -5.125 6.75 C-5.85332031 7.07871094 -6.58164062 7.40742188 -7.33203125 7.74609375 C-9.19438819 8.56195067 -11.0953752 9.28838194 -13 10 C-13.66 9.67 -14.32 9.34 -15 9 C-14.67 8.34 -14.34 7.68 -14 7 C-11.93359375 6.3671875 -11.93359375 6.3671875 -9.4375 5.875 C-8.61121094 5.70742187 -7.78492188 5.53984375 -6.93359375 5.3671875 C-5.97646484 5.18542969 -5.97646484 5.18542969 -5 5 C-5 4.34 -5 3.68 -5 3 C-3.35 2.67 -1.7 2.34 0 2 C0 1.34 0 0.68 0 0 Z " fill="#A791EF" transform="translate(341,184)"/>
<path d="M0 0 C2.64 0.33 5.28 0.66 8 1 C8 1.66 8 2.32 8 3 C8.66 3.103125 9.32 3.20625 10 3.3125 C13.83841009 4.19213564 17.33096691 5.56969896 21 7 C21 7.66 21 8.32 21 9 C16.18080529 8.32512263 12.08116134 6.42034091 7.6875 4.4375 C6.94693359 4.10814453 6.20636719 3.77878906 5.44335938 3.43945312 C3.62688438 2.63082877 1.81316069 1.81602884 0 1 C0 0.67 0 0.34 0 0 Z " fill="#B09DEE" transform="translate(187,204)"/>
<path d="M0 0 C0.66 0.33 1.32 0.66 2 1 C-0.34730788 2.32621385 -2.70164258 3.63580199 -5.0625 4.9375 C-6.04766602 5.49727539 -6.04766602 5.49727539 -7.05273438 6.06835938 C-11.44077463 8.46773114 -15.00873138 9.59109243 -20 10 C-18.64068647 7.28137293 -17.31729353 7.1771374 -14.5 6.125 C-10.16998882 4.47636068 -5.98808327 2.64249 -1.8125 0.63671875 C-1.214375 0.42660156 -0.61625 0.21648437 0 0 Z " fill="#AF9CED" transform="translate(385,298)"/>
<path d="M0 0 C5.80490091 0.48374174 9.92273151 2.22582237 15 5 C16.33100237 5.67130835 17.6637169 6.33926578 19 7 C15.07871478 8.3058334 13.02168909 7.38030356 9.31640625 5.59960938 C8.63449219 5.25736328 7.95257813 4.91511719 7.25 4.5625 C6.55261719 4.22412109 5.85523438 3.88574219 5.13671875 3.53710938 C3.41931879 2.70193542 1.70894262 1.85234576 0 1 C0 0.67 0 0.34 0 0 Z " fill="#B19DEF" transform="translate(57,423)"/>
<path d="M0 0 C6.34648842 2.6365543 12.69068172 5.27552165 19 8 C16.50935112 8.68707555 14.62113708 9 12 9 C12 8.34 12 7.68 12 7 C10.700625 6.5978125 10.700625 6.5978125 9.375 6.1875 C6.08208036 5.02888013 3.08872125 3.61790161 0 2 C0 1.34 0 0.68 0 0 Z " fill="#A691ED" transform="translate(451,92)"/>
<path d="M0 0 C-2.62309099 1.17112946 -5.24828142 2.33705964 -7.875 3.5 C-8.62136719 3.83386719 -9.36773437 4.16773438 -10.13671875 4.51171875 C-10.85214844 4.82753906 -11.56757813 5.14335937 -12.3046875 5.46875 C-12.96452637 5.76201172 -13.62436523 6.05527344 -14.30419922 6.35742188 C-16 7 -16 7 -18 7 C-18 6.34 -18 5.68 -18 5 C-16.68 5 -15.36 5 -14 5 C-14 4.34 -14 3.68 -14 3 C-12.23358317 2.3012307 -10.46167336 1.61633417 -8.6875 0.9375 C-7.20830078 0.36322266 -7.20830078 0.36322266 -5.69921875 -0.22265625 C-3 -1 -3 -1 0 0 Z " fill="#AB97EE" transform="translate(414,240)"/>
<path d="M0 0 C0.33 0.99 0.66 1.98 1 3 C2.49985609 4.66710346 2.49985609 4.66710346 4 6 C-5.59453303 3.10933941 -5.59453303 3.10933941 -9 0 C-5.69903842 -0.8252404 -3.1967 -1.37001429 0 0 Z " fill="#A58FEF" transform="translate(313,43)"/>
<path d="M0 0 C0 1.32 0 2.64 0 4 C0.66 4 1.32 4 2 4 C2 4.66 2 5.32 2 6 C-1.72433382 4.7874262 -5.37802806 3.49140021 -9 2 C-9 1.67 -9 1.34 -9 1 C-2.25 -1.125 -2.25 -1.125 0 0 Z " fill="#A892F2" transform="translate(106,440)"/>
<path d="M0 0 C-5.28 2.31 -10.56 4.62 -16 7 C-16 6.34 -16 5.68 -16 5 C-14.58671871 4.18162558 -13.16921654 3.37053781 -11.75 2.5625 C-10.56664062 1.88380859 -10.56664062 1.88380859 -9.359375 1.19140625 C-5.69236889 -0.66031041 -3.96367739 -1.3212258 0 0 Z " fill="#A993EE" transform="translate(468,216)"/>
<path d="M0 0 C7.75 0.875 7.75 0.875 10 2 C10 2.66 10 3.32 10 4 C10.639375 4.12375 11.27875 4.2475 11.9375 4.375 C12.618125 4.58125 13.29875 4.7875 14 5 C14.33 5.66 14.66 6.32 15 7 C9.76727367 5.36041242 4.84803364 3.61047965 0 1 C0 0.67 0 0.34 0 0 Z " fill="#AE9BEE" transform="translate(172,197)"/>
<path d="M0 0 C0.66 0.33 1.32 0.66 2 1 C1.67 2.32 1.34 3.64 1 5 C0.13375 4.979375 -0.7325 4.95875 -1.625 4.9375 C-4.85903648 4.99738956 -7.82799897 5.39580933 -11 6 C-7.57874946 3.12614955 -4.16111563 1.54115394 0 0 Z " fill="#AE98F1" transform="translate(175,31)"/>
<path d="M0 0 C-1.17604685 3.52814056 -1.76386646 4.25746655 -5 6 C-7.72072773 6.2497035 -10.2573779 6.13713111 -13 6 C-9.40464172 2.97989905 -4.81374718 0 0 0 Z " fill="#A993F0" transform="translate(224,10)"/>
<path d="M0 0 C5.19644079 1.59890486 10.06612142 3.74138003 15 6 C11.25890201 7.24703266 10.55570977 6.45460854 7 5 C4.67402489 4.6186926 2.34087842 4.27539746 0 4 C0 2.68 0 1.36 0 0 Z " fill="#AA95EB" transform="translate(160,175)"/>
<path d="M0 0 C9.09677419 0.90967742 9.09677419 0.90967742 12 3 C12.33 3.99 12.66 4.98 13 6 C8.52761347 4.58192622 4.28853694 2.88695626 0 1 C0 0.67 0 0.34 0 0 Z " fill="#AF9CF1" transform="translate(73,153)"/>
<path d="M0 0 C0 2 0 2 -1.17578125 3.58203125 C-3.54625051 5.42460157 -5.21495078 5.49447732 -8.1875 5.6875 C-9.08855469 5.75324219 -9.98960937 5.81898438 -10.91796875 5.88671875 C-11.60503906 5.92410156 -12.29210937 5.96148437 -13 6 C-9.2665631 3.06423574 -4.90655619 0 0 0 Z " fill="#A793EA" transform="translate(425,133)"/>
<path d="M0 0 C5.94 2.475 5.94 2.475 12 5 C12 5.66 12 6.32 12 7 C10.02 7.33 8.04 7.66 6 8 C6 7.01 6 6.02 6 5 C4.02 4.34 2.04 3.68 0 3 C0 2.01 0 1.02 0 0 Z " fill="#A791EF" transform="translate(255,4)"/>
<path d="M0 0 C-0.969375 0.45375 -1.93875 0.9075 -2.9375 1.375 C-6.07079582 2.65786221 -6.07079582 2.65786221 -7 5 C-9.31 5 -11.62 5 -14 5 C-11.75043698 2.75043698 -9.93676737 1.99489035 -7 0.8125 C-6.113125 0.44769531 -5.22625 0.08289063 -4.3125 -0.29296875 C-2 -1 -2 -1 0 0 Z " fill="#AC98EB" transform="translate(420,224)"/>
<path d="M0 0 C0 2 0 2 -1.125 3.625 C-3.75887944 5.55651159 -5.81916956 5.21205536 -9 5 C-9 4.34 -9 3.68 -9 3 C-2.25 0 -2.25 0 0 0 Z " fill="#A691EA" transform="translate(448,271)"/>
<path d="M0 0 C0 0.66 0 1.32 0 2 C-8.261959 6.59225513 -8.261959 6.59225513 -13 6 C-9.40464172 2.97989905 -4.81374718 0 0 0 Z " fill="#AC97EC" transform="translate(372,157)"/>
<path d="M0 0 C0 0.99 0 1.98 0 3 C-3.85756507 5.15305957 -6.55129785 6.39253254 -11 6 C-7.58983503 3.13546142 -4.09305456 1.65296434 0 0 Z " fill="#AA95ED" transform="translate(117,57)"/>
<path d="M0 0 C1.65 0 3.3 0 5 0 C5 0.66 5 1.32 5 2 C6.65 2 8.3 2 10 2 C10 2.66 10 3.32 10 4 C10.66 4 11.32 4 12 4 C11.67 4.66 11.34 5.32 11 6 C7.37 4.35 3.74 2.7 0 1 C0 0.67 0 0.34 0 0 Z " fill="#B19EF1" transform="translate(326,53)"/>
<path d="M0 0 C-1.4317616 0.69937202 -2.87067032 1.38412718 -4.3125 2.0625 C-5.51326172 2.63677734 -5.51326172 2.63677734 -6.73828125 3.22265625 C-9 4 -9 4 -12 3 C-10.10827237 0.58279247 -9.04144125 0.01036031 -6 -0.75 C-3 -1 -3 -1 0 0 Z " fill="#A38FE7" transform="translate(358,458)"/>
<path d="M0 0 C-0.33 0.99 -0.66 1.98 -1 3 C-5.09724467 4.54613006 -7.81857651 5.29227216 -12 4 C-10.3767313 3.3291288 -8.75132422 2.66342971 -7.125 2 C-6.22007812 1.62875 -5.31515625 1.2575 -4.3828125 0.875 C-2 0 -2 0 0 0 Z " fill="#AE9AEE" transform="translate(450,122)"/>
<path d="M0 0 C-3.96 1.65 -7.92 3.3 -12 5 C-10 1 -10 1 -6.5625 -0.3125 C-3 -1 -3 -1 0 0 Z " fill="#AA95EC" transform="translate(167,53)"/>
<path d="M0 0 C3.9492568 0.55105909 7.34920174 1.38935371 11 3 C11 3.66 11 4.32 11 5 C9.53932801 4.54917531 8.08151968 4.08906463 6.625 3.625 C5.81289062 3.36976563 5.00078125 3.11453125 4.1640625 2.8515625 C2 2 2 2 0 0 Z " fill="#A793EC" transform="translate(218,495)"/>
<path d="M0 0 C-0.33 0.99 -0.66 1.98 -1 3 C-4.80269732 4.6900877 -7.05272168 5.19873962 -11 4 C-9.5437455 3.32880451 -8.08492133 2.66318193 -6.625 2 C-5.81289063 1.62875 -5.00078125 1.2575 -4.1640625 0.875 C-2 0 -2 0 0 0 Z " fill="#A996E8" transform="translate(390,236)"/>
<path d="M0 0 C-1 3 -1 3 -3.3125 4.25 C-6.16597407 5.04631835 -7.24802325 4.8214856 -10 4 C-8.71086513 3.32845067 -7.41859796 2.66291141 -6.125 2 C-5.40570312 1.62875 -4.68640625 1.2575 -3.9453125 0.875 C-2 0 -2 0 0 0 Z " fill="#A992EF" transform="translate(14,104)"/>
<path d="M0 0 C2.31 0.66 4.62 1.32 7 2 C4.35261084 3.4606285 3.10551666 4 0 4 C0 2.68 0 1.36 0 0 Z " fill="#AC96F1" transform="translate(42,400)"/>
<path d="M0 0 C0 0.66 0 1.32 0 2 C-5.625 5 -5.625 5 -9 5 C-9 4.34 -9 3.68 -9 3 C-2.25 0 -2.25 0 0 0 Z " fill="#A692E6" transform="translate(356,371)"/>
<path d="M0 0 C0.33 1.32 0.66 2.64 1 4 C-0.32 4.33 -1.64 4.66 -3 5 C-3.66 4.01 -4.32 3.02 -5 2 C-3.35 1.34 -1.7 0.68 0 0 Z " fill="#A992F0" transform="translate(436,335)"/>
<path d="M0 0 C2.97 0 5.94 0 9 0 C9 1.32 9 2.64 9 4 C6.03 3.01 3.06 2.02 0 1 C0 0.67 0 0.34 0 0 Z " fill="#AD99F1" transform="translate(252,20)"/>
<path d="M0 0 C1.67542976 0.28604898 3.34385343 0.61781233 5 1 C2.06171403 3.50298434 -0.17902761 4.46930939 -4 5 C-4 4.34 -4 3.68 -4 3 C-3.01 2.34 -2.02 1.68 -1 1 C-0.67 0.67 -0.34 0.34 0 0 Z " fill="#A48EED" transform="translate(481,326)"/>
<path d="M0 0 C-0.33 0.99 -0.66 1.98 -1 3 C-3.5625 4.1875 -3.5625 4.1875 -6 5 C-6.33 4.01 -6.66 3.02 -7 2 C-2.25 0 -2.25 0 0 0 Z " fill="#A690EF" transform="translate(357,251)"/>
<path d="M0 0 C0.66 0.33 1.32 0.66 2 1 C0.37660195 2.70884005 -1.29319053 4.37446717 -3 6 C-3.66 6 -4.32 6 -5 6 C-5 5.34 -5 4.68 -5 4 C-5.66 3.67 -6.32 3.34 -7 3 C-4.69631264 1.93347808 -2.35981813 0.93578995 0 0 Z " fill="#A791ED" transform="translate(296,190)"/>
</svg>
